<svg xmlns="http://www.w3.org/2000/svg" width="49" height="49" viewBox="0 0 49 49" fill="none">
    <rect x="3" y="5" width="40" height="40" rx="20" fill="#F0F0F0"/>
    <path d="M27.2222 0H21.7778V5.44444H27.2222V0ZM38.1111 5.44444H43.5556V10.8889H38.1111V5.44444ZM21.7778 21.7778H27.2222V27.2222H21.7778V21.7778ZM0 21.7778H5.44444V27.2222H0V21.7778ZM49 21.7778H43.5556V27.2222H49V21.7778ZM5.44444 5.44444H10.8889V10.8889H5.44444V5.44444ZM43.5556 43.5556H38.1111V38.1111H43.5556V43.5556ZM21.7778 49H27.2222V43.5556H21.7778V49ZM10.8889 43.5556H5.44444V38.1111H10.8889V43.5556ZM16.3333 10.8889H32.6667V16.3333H16.3333V10.8889ZM16.3333 32.6667H10.8889V16.3333H16.3333V32.6667ZM16.3333 32.6667V38.1111H32.6667V32.6667H38.1111V16.3333H32.6667V32.6667H16.3333Z" fill="#00145C"/>
</svg>