<?xml version="1.0" encoding="UTF-8"?>
<!DOCTYPE svg PUBLIC "-//W3C//DTD SVG 1.1//EN" "http://www.w3.org/Graphics/SVG/1.1/DTD/svg11.dtd">
<svg xmlns="http://www.w3.org/2000/svg" version="1.1" width="1071px" height="1086px" style="shape-rendering:geometricPrecision; text-rendering:geometricPrecision; image-rendering:optimizeQuality; fill-rule:evenodd; clip-rule:evenodd" xmlns:xlink="http://www.w3.org/1999/xlink">
    <g><path style="opacity:1" fill="#fbfdfe" d="M 460.5,-0.5 C 465.5,-0.5 470.5,-0.5 475.5,-0.5C 485.885,2.04414 493.052,8.37747 497,18.5C 498.762,32.4758 500.428,46.4758 502,60.5C 504.195,72.0948 508.528,82.7614 515,92.5C 515.111,64.4356 526.611,42.6023 549.5,27C 562.812,18.7521 576.812,17.0855 591.5,22C 601.09,27.3289 606.59,35.4956 608,46.5C 606.603,71.1539 611.937,94.1539 624,115.5C 629.857,123.677 637.357,129.843 646.5,134C 788.205,164.868 900.705,239.034 984,356.5C 1035.45,433.024 1064.29,517.357 1070.5,609.5C 1070.5,627.833 1070.5,646.167 1070.5,664.5C 1058.15,819.578 984.483,935.078 849.5,1011C 777.747,1049.03 701.414,1072.36 620.5,1081C 603.033,1082.75 585.699,1084.25 568.5,1085.5C 546.167,1085.5 523.833,1085.5 501.5,1085.5C 416.386,1081.97 334.72,1063.14 256.5,1029C 188.237,998.403 130.737,953.903 84,895.5C 30.9041,824.052 2.73739,743.719 -0.5,654.5C -0.5,642.833 -0.5,631.167 -0.5,619.5C 9.33521,463.318 75.0019,336.485 196.5,239C 264.4,186.891 340.4,151.724 424.5,133.5C 407.486,108.086 402.319,80.419 409,50.5C 416.828,23.8379 433.994,6.83791 460.5,-0.5 Z"/></g>
    <g><path style="opacity:1" fill="#223336" d="M 303.5,563.5 C 324.123,562.203 341.289,569.203 355,584.5C 357.895,595.277 353.728,600.443 342.5,600C 337.732,595.231 332.399,591.231 326.5,588C 316.911,583.949 307.245,583.615 297.5,587C 290.618,590.552 284.284,594.885 278.5,600C 270.379,601.543 266.046,598.21 265.5,590C 265.26,587.109 266.093,584.609 268,582.5C 277.849,572.327 289.682,565.994 303.5,563.5 Z"/></g>
    <g><path style="opacity:1" fill="#223336" d="M 739.5,563.5 C 760.123,562.203 777.289,569.203 791,584.5C 793.895,595.277 789.728,600.443 778.5,600C 773.732,595.231 768.399,591.231 762.5,588C 752.911,583.949 743.245,583.615 733.5,587C 726.618,590.552 720.284,594.885 714.5,600C 706.379,601.543 702.046,598.21 701.5,590C 701.26,587.109 702.093,584.609 704,582.5C 713.849,572.327 725.682,565.994 739.5,563.5 Z"/></g>
    <g><path style="opacity:1" fill="#203236" d="M 304.5,628.5 C 332.254,627.447 350.087,640.113 358,666.5C 360.704,697.107 347.204,715.941 317.5,723C 298.44,724.719 283.273,717.885 272,702.5C 257.896,675.422 263.063,652.922 287.5,635C 293.058,632.207 298.725,630.041 304.5,628.5 Z"/></g>
    <g><path style="opacity:1" fill="#203236" d="M 739.5,628.5 C 766.255,627.448 784.089,639.448 793,664.5C 797.246,693.181 785.746,712.348 758.5,722C 729.864,726.266 710.697,714.766 701,687.5C 697.14,656.872 709.974,637.205 739.5,628.5 Z"/></g>
    <g><path style="opacity:1" fill="#f9fafa" d="M 293.5,640.5 C 311.077,640.613 315.244,648.28 306,663.5C 298.548,671.835 289.714,674.002 279.5,670C 274.409,663.669 274.242,657.169 279,650.5C 283.023,645.758 287.857,642.425 293.5,640.5 Z"/></g>
    <g><path style="opacity:1" fill="#f8fafa" d="M 729.5,640.5 C 747.077,640.613 751.244,648.28 742,663.5C 734.548,671.835 725.714,674.002 715.5,670C 710.341,663.701 710.175,657.201 715,650.5C 719.023,645.758 723.857,642.425 729.5,640.5 Z"/></g>
    <g><path style="opacity:1" fill="#f2ac70" d="M 515.5,663.5 C 532.776,662.134 549.442,664.634 565.5,671C 586.351,683.952 609.018,689.952 633.5,689C 640.36,686.074 647.36,683.408 654.5,681C 667.013,678.752 678.68,680.752 689.5,687C 704.7,701.572 706.533,717.739 695,735.5C 691,740.167 686.667,744.5 682,748.5C 681.088,762.959 682.088,777.293 685,791.5C 689.411,805.399 693.411,819.399 697,833.5C 706.367,872.305 704.034,910.305 690,947.5C 676.383,976.45 654.883,997.283 625.5,1010C 601.797,1019.58 577.13,1024.91 551.5,1026C 510.499,1030.06 470.832,1024.72 432.5,1010C 387.1,989.093 361.933,953.593 357,903.5C 354.99,877.504 356.99,851.837 363,826.5C 366.668,814.162 370.335,801.829 374,789.5C 376.237,775.909 376.904,762.242 376,748.5C 361.546,738.592 354.879,724.925 356,707.5C 363.876,684.804 379.71,675.971 403.5,681C 410.422,683.131 417.089,685.798 423.5,689C 439.43,690.681 454.763,688.348 469.5,682C 479.073,678.214 488.407,673.88 497.5,669C 503.519,666.835 509.519,665.001 515.5,663.5 Z"/></g>
    <g><path style="opacity:1" fill="#203235" d="M 527.5,732.5 C 565.957,745.615 605.124,747.948 645,739.5C 655.148,741.465 658.148,747.131 654,756.5C 652.2,758.317 650.034,759.484 647.5,760C 632.603,762.492 617.603,764.158 602.5,765C 594.004,778.258 582.004,786.591 566.5,790C 538.934,797.837 511.601,797.17 484.5,788C 475.211,784.11 467.044,778.61 460,771.5C 458.634,769.63 457.467,767.63 456.5,765.5C 440.744,764.361 425.078,762.527 409.5,760C 403.439,757.037 401.272,752.203 403,745.5C 405.333,741.833 408.667,739.833 413,739.5C 443.107,745.984 473.274,746.151 503.5,740C 511.911,738.405 519.911,735.905 527.5,732.5 Z"/></g>
    <g><path style="opacity:1" fill="#e55a43" d="M 527.5,754.5 C 543.117,759.423 559.117,762.59 575.5,764C 568.913,767.642 561.913,770.309 554.5,772C 533.537,776.21 512.871,775.21 492.5,769C 489.136,767.318 485.802,765.651 482.5,764C 498.004,762.535 513.004,759.369 527.5,754.5 Z"/></g>
</svg>
