<?xml version="1.0" encoding="UTF-8"?>
<!DOCTYPE svg PUBLIC "-//W3C//DTD SVG 1.1//EN" "http://www.w3.org/Graphics/SVG/1.1/DTD/svg11.dtd">
<svg xmlns="http://www.w3.org/2000/svg" version="1.1" width="380px" height="379px" style="shape-rendering:geometricPrecision; text-rendering:geometricPrecision; image-rendering:optimizeQuality; fill-rule:evenodd; clip-rule:evenodd" xmlns:xlink="http://www.w3.org/1999/xlink">
    <g><path style="opacity:1" fill="#eaeff6" d="M 174.5,-0.5 C 175.167,-0.5 175.833,-0.5 176.5,-0.5C 176.889,7.83574 177.389,16.1691 178,24.5C 181.073,25.6168 184.24,25.7835 187.5,25C 188.071,23.7949 188.738,22.6283 189.5,21.5C 190.466,23.396 190.799,25.396 190.5,27.5C 184.811,27.5324 179.145,27.8658 173.5,28.5C 172.942,20.5096 172.442,12.5096 172,4.5C 171.1,3.22978 169.934,2.22978 168.5,1.5C 170.631,0.831285 172.631,0.164619 174.5,-0.5 Z"/></g>
    <g><path style="opacity:1" fill="#eef1f7" d="M 201.5,1.5 C 204.355,0.196801 207.355,0.196801 210.5,1.5C 209.393,9.78146 208.559,18.1148 208,26.5C 206.951,28.1066 205.451,28.7733 203.5,28.5C 203.698,20.6182 204.365,12.7849 205.5,5C 204.798,3.14367 203.464,1.977 201.5,1.5 Z"/></g>
    <g><path style="opacity:0.915" fill="#e9eef5" d="M 235.5,30.5 C 237.556,31.2161 239.723,31.8828 242,32.5C 242.399,32.2716 242.565,31.9382 242.5,31.5C 244.465,31.9483 244.798,32.9483 243.5,34.5C 240.869,35.344 238.369,35.6773 236,35.5C 234.068,33.9617 231.901,32.795 229.5,32C 227.647,29.9602 226.314,27.6269 225.5,25C 226.174,21.083 227.007,16.9163 228,12.5C 232.9,4.86188 239.233,3.19521 247,7.5C 248.854,9.02283 250.354,10.8562 251.5,13C 250.421,13.956 249.255,14.7894 248,15.5C 245.666,13.7481 243.833,11.5814 242.5,9C 240.08,8.31307 237.913,8.81307 236,10.5C 232.9,16.0469 231.4,21.5469 231.5,27C 232.532,28.6268 233.866,29.7934 235.5,30.5 Z"/></g>
    <g><path style="opacity:1" fill="#eaeff6" d="M 139.5,5.5 C 149.018,3.8402 154.518,7.8402 156,17.5C 157.883,30.6189 152.383,35.7856 139.5,33C 133.652,26.4431 131.819,18.9431 134,10.5C 135.73,8.59809 137.563,6.93142 139.5,5.5 Z M 140.5,7.5 C 145.598,6.42947 148.764,8.42947 150,13.5C 150.991,17.1323 151.825,20.7989 152.5,24.5C 152.135,30.3691 149.135,32.5358 143.5,31C 137.055,23.6806 136.055,15.8473 140.5,7.5 Z"/></g>
    <g><path style="opacity:1" fill="#eef1f7" d="M 92.5,27.5 C 94.0171,25.8158 95.8504,24.4825 98,23.5C 100.726,26.5986 103.226,29.932 105.5,33.5C 108.667,32.2812 111.667,30.7812 114.5,29C 112.57,25.8061 110.903,22.4728 109.5,19C 110.098,17.6988 111.098,16.8655 112.5,16.5C 117.326,24.1458 121.659,32.1458 125.5,40.5C 124.032,42.3329 122.365,42.6662 120.5,41.5C 119.43,37.688 117.596,34.3547 115,31.5C 111.773,32.8635 108.606,34.3635 105.5,36C 107.628,39.7546 109.628,43.5879 111.5,47.5C 110.562,48.5529 109.395,49.2196 108,49.5C 103.838,43.1826 100.172,36.516 97,29.5C 95.8904,27.9632 94.3904,27.2965 92.5,27.5 Z"/></g>
    <g><path style="opacity:1" fill="#ecf0f7" d="M 279.5,23.5 C 279.56,22.9569 279.893,22.6236 280.5,22.5C 283.203,23.5125 285.536,25.0125 287.5,27C 283.88,33.0695 280.38,39.2361 277,45.5C 276.124,48.917 277.291,51.417 280.5,53C 282.635,53.6347 284.635,53.3014 286.5,52C 290.292,46.2509 293.958,40.4176 297.5,34.5C 298.325,33.6143 299.325,33.281 300.5,33.5C 297.638,39.5644 294.471,45.5644 291,51.5C 285.116,56.9172 279.45,56.5838 274,50.5C 272,47.1667 272,43.8333 274,40.5C 277.085,35.9998 279.918,31.3331 282.5,26.5C 281.812,25.1451 280.812,24.1451 279.5,23.5 Z"/></g>
    <g><path style="opacity:0.561" fill="#95b1d3" d="M 92.5,27.5 C 91.8333,28.1667 91.8333,28.1667 92.5,27.5 Z"/></g>
    <g><path style="opacity:0.094" fill="#151f8a" d="M 235.5,30.5 C 238.059,30.1984 240.393,30.5318 242.5,31.5C 242.565,31.9382 242.399,32.2716 242,32.5C 239.723,31.8828 237.556,31.2161 235.5,30.5 Z"/></g>
    <g><path style="opacity:1" fill="#fbfcfd" d="M 189.5,38.5 C 205.756,50.588 220.256,64.588 233,80.5C 267.483,122.781 293.149,170.115 310,222.5C 314.18,236.565 317.013,250.899 318.5,265.5C 318.46,267.429 318.127,269.262 317.5,271C 301.032,279.267 283.699,284.934 265.5,288C 204.943,299.796 144.943,297.463 85.5,281C 77.028,278.18 68.8614,274.68 61,270.5C 63.4419,241.733 70.4419,214.066 82,187.5C 104.397,134.454 136.231,87.9541 177.5,48C 181.399,44.5887 185.399,41.4221 189.5,38.5 Z M 190.5,51.5 C 191.322,91.1924 192.822,130.859 195,170.5C 198.67,161.827 202.836,153.494 207.5,145.5C 204.5,154.833 201.5,164.167 198.5,173.5C 212.353,162.07 226.019,150.404 239.5,138.5C 227.751,152.291 215.751,165.958 203.5,179.5C 203.667,179.833 203.833,180.167 204,180.5C 213.33,176.668 222.83,173.334 232.5,170.5C 224.506,175.164 216.173,179.33 207.5,183C 235.11,185.225 262.776,186.892 290.5,188C 262.847,189.833 235.181,191.499 207.5,193C 215.525,197.274 223.525,201.441 231.5,205.5C 222.046,202.735 212.712,199.901 203.5,197C 217.104,211.428 230.104,226.262 242.5,241.5C 227.833,228.5 213.167,215.5 198.5,202.5C 201.302,212.238 204.302,221.905 207.5,231.5C 203.379,223.259 199.213,214.925 195,206.5C 192.74,233.762 191.074,261.095 190,288.5C 188.101,260.853 186.434,233.186 185,205.5C 180.454,214.592 175.954,223.592 171.5,232.5C 174.427,222.719 177.761,213.052 181.5,203.5C 181.167,203.167 180.833,202.833 180.5,202.5C 166.958,214.751 153.291,226.751 139.5,238.5C 151.603,224.558 163.937,210.724 176.5,197C 166.145,199.838 155.812,203.005 145.5,206.5C 154.408,202.046 163.408,197.546 172.5,193C 144.814,191.566 117.147,189.899 89.5,188C 116.901,186.856 144.234,185.19 171.5,183C 163.075,178.787 154.741,174.621 146.5,170.5C 156.095,173.698 165.762,176.698 175.5,179.5C 162.374,164.537 149.041,149.704 135.5,135C 136.167,134.333 136.833,134.333 137.5,135C 152,148.167 166.5,161.333 181,174.5C 178.099,165.288 175.265,155.954 172.5,146.5C 176.287,154.075 180.121,161.741 184,169.5C 186.471,133.936 187.971,98.269 188.5,62.5C 189.167,58.8333 189.833,55.1667 190.5,51.5 Z M 95.5,269.5 C 95.2627,268.209 95.596,267.209 96.5,266.5C 97.1834,268.176 98.5168,268.843 100.5,268.5C 100.628,266.345 100.128,264.345 99,262.5C 98.6174,263.056 98.1174,263.389 97.5,263.5C 97.5,262.167 97.5,260.833 97.5,259.5C 98.675,259.281 99.675,259.614 100.5,260.5C 101.878,264.803 103.544,268.97 105.5,273C 103.41,273.268 102.076,272.268 101.5,270C 99.5273,269.505 97.5273,269.338 95.5,269.5 Z M 117.5,268.5 C 117.617,270.484 116.95,272.15 115.5,273.5C 113.708,269.626 112.208,265.626 111,261.5C 110.667,265.5 110.333,269.5 110,273.5C 109.803,268.914 109.303,264.414 108.5,260C 109.793,259.51 111.127,259.343 112.5,259.5C 113.16,263.313 114.326,266.979 116,270.5C 116.278,269.584 116.778,268.918 117.5,268.5 Z M 117.5,268.5 C 118.167,265.5 118.833,262.5 119.5,259.5C 120.5,259.5 121.5,259.5 122.5,259.5C 122.827,264.214 122.493,268.88 121.5,273.5C 120.676,270.215 120.176,266.882 120,263.5C 119.626,265.491 118.793,267.158 117.5,268.5 Z M 128.5,270.5 C 128.402,268.447 129.069,266.78 130.5,265.5C 130.5,266.5 130.5,267.5 130.5,268.5C 131.978,268.762 133.311,268.429 134.5,267.5C 134.043,265.402 133.043,263.736 131.5,262.5C 130.044,259.569 130.877,258.902 134,260.5C 136.171,264.802 137.338,269.136 137.5,273.5C 135.446,269.704 132.446,268.704 128.5,270.5 Z M 141.5,260.5 C 144.365,259.217 147.365,259.217 150.5,260.5C 152.147,263.454 151.481,265.62 148.5,267C 149.585,269.172 150.919,271.172 152.5,273C 151.365,273.749 150.365,273.583 149.5,272.5C 148.533,270.37 147.366,268.37 146,266.5C 144.957,268.701 144.123,271.034 143.5,273.5C 142.833,269.018 142.166,264.684 141.5,260.5 Z M 155.5,260.5 C 164.578,260.094 165.578,260.094 158.5,260.5C 158.5,262.167 158.5,263.833 158.5,265.5C 160.144,265.714 161.644,265.38 163,264.5C 163.667,265.5 163.667,266.5 163,267.5C 161.644,266.62 160.144,266.286 158.5,266.5C 158.5,268.5 158.5,270.5 158.5,272.5C 160.78,272.254 162.78,272.254 164.5,272.5C 161.914,273.48 159.247,273.813 156.5,273.5C 156.818,268.968 156.485,264.634 155.5,260.5 Z M 213.5,259.5 C 215.857,259.337 218.19,259.503 220.5,260C 218.527,260.495 216.527,260.662 214.5,260.5C 214.626,263.595 216.293,265.428 219.5,266C 222.167,268.333 222.167,270.667 219.5,273C 217.098,273.814 214.765,273.647 212.5,272.5C 214.239,272.406 216.239,272.239 218.5,272C 218.957,271.586 219.291,271.086 219.5,270.5C 217.81,267.976 215.643,265.976 213,264.5C 212.36,262.735 212.527,261.068 213.5,259.5 Z M 223.5,259.5 C 226.572,259.183 229.572,259.516 232.5,260.5C 230.78,260.746 228.78,260.746 226.5,260.5C 226.5,262.167 226.5,263.833 226.5,265.5C 228.144,265.714 229.644,265.38 231,264.5C 231.667,265.833 231.667,267.167 231,268.5C 229.951,266.893 228.451,266.227 226.5,266.5C 226.5,268.5 226.5,270.5 226.5,272.5C 228.78,272.254 230.78,272.254 232.5,272.5C 229.914,273.48 227.247,273.813 224.5,273.5C 224.717,268.77 224.383,264.103 223.5,259.5 Z M 234.5,260.5 C 237.796,258.973 240.962,259.307 244,261.5C 244.667,262.5 244.667,263.5 244,264.5C 242.978,265.354 242.145,266.354 241.5,267.5C 243.441,269.316 244.108,271.316 243.5,273.5C 241.678,271.206 239.844,268.872 238,266.5C 237.814,268.9 237.314,271.234 236.5,273.5C 235.833,269.018 235.166,264.684 234.5,260.5 Z M 253.5,270.5 C 253.646,272.942 252.813,273.609 251,272.5C 249.828,267.994 247.995,263.827 245.5,260C 246.784,259.316 247.951,259.483 249,260.5C 250.232,264.061 251.732,267.394 253.5,270.5 Z M 258.5,260.5 C 259.568,259.566 260.901,259.232 262.5,259.5C 262.827,264.214 262.493,268.88 261.5,273.5C 261.123,268.757 260.123,264.424 258.5,260.5 Z M 265.5,260.5 C 268.365,259.217 271.365,259.217 274.5,260.5C 276.147,263.454 275.481,265.62 272.5,267C 273.585,269.172 274.919,271.172 276.5,273C 275.365,273.749 274.365,273.583 273.5,272.5C 272.533,270.37 271.366,268.37 270,266.5C 268.957,268.701 268.123,271.034 267.5,273.5C 266.833,269.018 266.166,264.684 265.5,260.5 Z M 278.5,259.5 C 281.187,259.336 283.854,259.503 286.5,260C 284.866,260.494 283.199,260.66 281.5,260.5C 281.5,262.167 281.5,263.833 281.5,265.5C 282.978,265.238 284.311,265.571 285.5,266.5C 284.443,266.906 283.109,266.906 281.5,266.5C 281.5,268.5 281.5,270.5 281.5,272.5C 283.766,272.859 285.599,272.192 287,270.5C 287.483,271.448 287.649,272.448 287.5,273.5C 284.5,273.5 281.5,273.5 278.5,273.5C 278.5,268.833 278.5,264.167 278.5,259.5 Z M 256.5,262.5 C 256.267,265.542 255.267,268.208 253.5,270.5C 253.733,267.458 254.733,264.792 256.5,262.5 Z M 95.5,269.5 C 95.6882,271.103 95.1882,272.437 94,273.5C 93.6522,271.86 94.1522,270.527 95.5,269.5 Z"/></g>
    <g><path style="opacity:1" fill="#eaeff6" d="M 78.5,35.5 C 81.8532,35.555 83.3532,37.2217 83,40.5C 80.2132,37.9165 77.7132,38.2499 75.5,41.5C 80.1416,47.9755 84.9749,54.3089 90,60.5C 90.3087,62.3914 89.4753,63.7248 87.5,64.5C 81.8411,58.0037 76.3411,51.337 71,44.5C 68.2119,46.4121 66.8786,49.0787 67,52.5C 65.9542,50.9095 64.7875,49.4095 63.5,48C 68.9403,44.2913 73.9403,40.1247 78.5,35.5 Z"/></g>
    <g><path style="opacity:1" fill="#edf0f2" d="M 312.5,45.5 C 311.833,44.1667 311.833,44.1667 312.5,45.5 Z"/></g>
    <g><path style="opacity:1" fill="#e6ecf5" d="M 312.5,45.5 C 315.069,46.3956 317.069,48.0623 318.5,50.5C 315.955,58.4024 314.121,66.4024 313,74.5C 317.133,69.3656 321.633,64.5323 326.5,60C 327.725,59.4372 328.725,59.7705 329.5,61C 322.934,67.5664 316.434,74.0664 310,80.5C 308.115,80.1379 307.281,78.9713 307.5,77C 309.595,68.7951 311.429,60.6284 313,52.5C 307.8,57.3653 302.967,62.5319 298.5,68C 297.275,68.5628 296.275,68.2295 295.5,67C 301.347,61.4532 306.847,55.6198 312,49.5C 312.49,48.2068 312.657,46.8734 312.5,45.5 Z"/></g>
    <g><path style="opacity:1" fill="#b0c5e1" d="M 190.5,51.5 C 189.833,55.1667 189.167,58.8333 188.5,62.5C 188.112,57.3722 188.612,52.3722 190,47.5C 190.49,48.7932 190.657,50.1266 190.5,51.5 Z"/></g>
    <g><path style="opacity:1" fill="#ebf0f6" d="M 47.5,64.5 C 56.9916,67.4983 66.325,70.9983 75.5,75C 74.541,76.4638 73.2077,77.2972 71.5,77.5C 68.9719,76.0585 66.3053,75.5585 63.5,76C 61.1255,78.039 59.1255,80.3723 57.5,83C 58.9606,85.4206 60.2939,87.9206 61.5,90.5C 61.1924,91.3081 60.6924,91.9747 60,92.5C 56,85.1667 52,77.8333 48,70.5C 46.3476,69.783 44.8476,69.4496 43.5,69.5C 44.8569,67.8144 46.1902,66.1477 47.5,64.5 Z M 51.5,70.5 C 55.0704,71.2456 58.4037,72.5789 61.5,74.5C 59.8076,76.3586 58.3076,78.3586 57,80.5C 54.3805,77.594 52.5472,74.2607 51.5,70.5 Z"/></g>
    <g><path style="opacity:1" fill="#eef2f7" d="M 337.5,71.5 C 339.812,73.1455 341.812,75.1455 343.5,77.5C 337.645,82.523 331.645,87.3564 325.5,92C 323.945,93.2893 322.279,93.956 320.5,94C 319.483,92.9505 319.316,91.7839 320,90.5C 326.185,85.7382 332.185,80.7382 338,75.5C 338.195,74.1807 338.028,72.8474 337.5,71.5 Z"/></g>
    <g><path style="opacity:0.602" fill="#dce3f0" d="M 349.5,88.5 C 352.811,90.12 354.311,92.7866 354,96.5C 349.167,102 344.333,107.5 339.5,113C 346.649,112.226 353.815,111.059 361,109.5C 362.28,109.613 363.113,110.28 363.5,111.5C 354.85,113.859 346.016,115.526 337,116.5C 333.928,116.633 332.594,115.299 333,112.5C 338.667,106.167 344.333,99.8333 350,93.5C 350.384,91.8034 350.218,90.1368 349.5,88.5 Z"/></g>
    <g><path style="opacity:1" fill="#ebeff6" d="M 31.5,87.5 C 36.8199,87.5778 37.4866,89.0778 33.5,92C 27.5419,91.9563 25.3753,94.7896 27,100.5C 31.4783,106.343 37.3116,109.51 44.5,110C 48.4079,108.027 50.7412,104.86 51.5,100.5C 52.1458,105.716 50.1458,109.883 45.5,113C 41.8639,114.899 38.1973,114.899 34.5,113C 21.1075,105.705 20.1075,97.2052 31.5,87.5 Z"/></g>
    <g><path style="opacity:1" fill="#e9eef5" d="M 367.5,126.5 C 368.302,125.115 368.969,125.282 369.5,127C 371.068,132.535 372.734,138.035 374.5,143.5C 372.821,144.782 370.987,145.782 369,146.5C 369.713,144.953 370.546,143.286 371.5,141.5C 371.178,138.675 370.012,136.342 368,134.5C 364.971,135.285 362.138,136.451 359.5,138C 360.1,141.535 362.1,143.868 365.5,145C 362.57,146.318 359.57,146.985 356.5,147C 359.744,144.181 359.911,141.014 357,137.5C 354.649,138.714 352.149,139.548 349.5,140C 348.422,140.674 347.755,141.674 347.5,143C 347.376,147.352 349.376,150.018 353.5,151C 351.655,152.128 349.655,152.628 347.5,152.5C 346.37,147.112 345.037,141.778 343.5,136.5C 351.229,134.647 358.896,132.48 366.5,130C 368.311,128.959 368.645,127.793 367.5,126.5 Z"/></g>
    <g><path style="opacity:1" fill="#ebf0f6" d="M 5.5,140.5 C 13.2831,141.862 20.9498,143.696 28.5,146C 31.9858,150.376 32.4858,155.209 30,160.5C 28.2568,162.871 25.9234,164.205 23,164.5C 16.9975,163.166 10.9975,161.833 5,160.5C 3.5232,161.444 2.5232,162.777 2,164.5C 1.22284,161.571 1.38951,158.737 2.5,156C 9.33629,156.765 16.1696,157.932 23,159.5C 27.2587,159.741 29.4254,157.741 29.5,153.5C 29.6102,151.626 28.9436,150.126 27.5,149C 20.9454,146.955 14.2787,145.288 7.5,144C 6.02674,143.29 5.36007,142.124 5.5,140.5 Z"/></g>
    <g><path style="opacity:1" fill="#ebf0f6" d="M 379.5,172.5 C 379.5,173.833 379.5,175.167 379.5,176.5C 378.273,182.531 374.606,184.698 368.5,183C 366.741,181.992 365.574,180.492 365,178.5C 361,181.167 357,183.833 353,186.5C 352.018,185.241 351.685,183.908 352,182.5C 355.222,179.612 358.722,177.112 362.5,175C 363.337,173.989 363.67,172.822 363.5,171.5C 359.459,171.675 355.459,171.842 351.5,172C 350.62,170.644 350.286,169.144 350.5,167.5C 359.182,167.014 367.849,166.347 376.5,165.5C 376.312,163.897 376.812,162.563 378,161.5C 378.177,165.356 378.677,169.023 379.5,172.5 Z M 367.5,170.5 C 370.5,170.5 373.5,170.5 376.5,170.5C 378.037,175.196 376.37,178.196 371.5,179.5C 367.889,178.643 365.889,176.31 365.5,172.5C 366.243,171.818 366.909,171.151 367.5,170.5 Z"/></g>
    <g><path style="opacity:1" fill="#e9eef6" d="M -0.5,193.5 C -0.5,190.167 -0.5,186.833 -0.5,183.5C 0.845008,181.164 2.84501,179.497 5.5,178.5C 6.97182,182.06 5.80516,184.393 2,185.5C 0.67647,191.523 3.17647,194.689 9.5,195C 15.0524,196.196 20.2191,195.363 25,192.5C 26.1505,190.246 26.4838,187.913 26,185.5C 22.2488,184.345 18.4154,183.845 14.5,184C 13.9288,185.205 13.2621,186.372 12.5,187.5C 12.2577,184.681 12.2577,181.681 12.5,178.5C 17.3891,179.019 22.2225,179.685 27,180.5C 30.7103,194.943 25.2103,201.443 10.5,200C 5.817,199.333 2.15033,197.167 -0.5,193.5 Z"/></g>
    <g><path style="opacity:1" fill="#eaeff6" d="M 379.5,207.5 C 379.5,209.833 379.5,212.167 379.5,214.5C 378.566,215.568 378.232,216.901 378.5,218.5C 377.325,218.719 376.325,218.386 375.5,217.5C 377.818,214.182 377.818,211.016 375.5,208C 373.833,207.333 372.167,207.333 370.5,208C 367.946,213.389 363.946,217.222 358.5,219.5C 350.509,216.286 348.343,210.619 352,202.5C 352.826,200.595 353.993,200.261 355.5,201.5C 353.517,204.603 352.684,207.936 353,211.5C 354.242,212.872 355.742,213.872 357.5,214.5C 361.652,210.849 365.652,207.016 369.5,203C 374.217,201.571 377.55,203.071 379.5,207.5 Z"/></g>
    <g><path style="opacity:1" fill="#e9eef5" d="M 25.5,214.5 C 27.451,214.227 28.951,214.893 30,216.5C 31.6366,221.14 32.1366,225.807 31.5,230.5C 23.8538,232.396 16.1872,234.229 8.5,236C 7.80945,237.067 7.30945,238.234 7,239.5C 5.02904,233.283 3.52904,226.949 2.5,220.5C 4.51162,219.986 6.51162,219.82 8.5,220C 5.19548,222.874 4.52881,226.374 6.5,230.5C 9.85994,230.384 13.1933,230.051 16.5,229.5C 16.9402,225.232 15.2736,222.399 11.5,221C 14.5197,219.489 17.5197,218.989 20.5,219.5C 18.9884,220.249 17.9884,221.416 17.5,223C 18.2335,224.766 18.5668,226.599 18.5,228.5C 21.9097,228.218 25.243,227.551 28.5,226.5C 29.4763,223.503 29.3097,220.503 28,217.5C 26.6012,216.773 25.1012,216.273 23.5,216C 24.4158,215.722 25.0825,215.222 25.5,214.5 Z"/></g>
    <g><path style="opacity:1" fill="#edf1f7" d="M 347.5,229.5 C 355.622,232.448 363.955,234.281 372.5,235C 373.126,234.25 373.626,233.416 374,232.5C 374.602,235.662 374.102,238.662 372.5,241.5C 364.506,239.335 356.506,237.168 348.5,235C 346.19,233.541 345.857,231.708 347.5,229.5 Z"/></g>
    <g><path style="opacity:1" fill="#e7edf5" d="M 36.5,242.5 C 37.2485,243.531 37.9152,244.698 38.5,246C 35.8974,248.094 33.8974,250.594 32.5,253.5C 33.248,257.142 34.9146,260.142 37.5,262.5C 40.1147,261.731 42.7814,261.397 45.5,261.5C 45.5,262.5 45.5,263.5 45.5,264.5C 36.8061,264.491 28.1395,264.991 19.5,266C 18.8095,267.067 18.3095,268.234 18,269.5C 16.4868,266.976 15.8201,264.309 16,261.5C 23.03,255.3 29.8633,248.967 36.5,242.5 Z M 29.5,254.5 C 31.1903,256.504 32.5236,258.837 33.5,261.5C 29.878,262.659 26.2113,262.825 22.5,262C 25.0386,259.63 27.3719,257.13 29.5,254.5 Z"/></g>
    <g><path style="opacity:1" fill="#ebeff6" d="M 338.5,253.5 C 346.682,256.253 354.682,259.587 362.5,263.5C 365.113,260.629 365.113,257.795 362.5,255C 365.951,254.631 367.451,256.131 367,259.5C 364.606,265.287 361.94,270.954 359,276.5C 357.414,275.624 355.914,274.624 354.5,273.5C 358.014,273.479 359.847,271.479 360,267.5C 352.909,264.038 345.742,260.705 338.5,257.5C 337.708,256.3 337.708,254.967 338.5,253.5 Z"/></g>
    <g><path style="opacity:1" fill="#d7e1ef" d="M 96.5,266.5 C 97.404,265.791 97.7373,264.791 97.5,263.5C 98.1174,263.389 98.6174,263.056 99,262.5C 100.128,264.345 100.628,266.345 100.5,268.5C 98.5168,268.843 97.1834,268.176 96.5,266.5 Z"/></g>
    <g><path style="opacity:1" fill="#dde4f1" d="M 131.5,262.5 C 133.043,263.736 134.043,265.402 134.5,267.5C 133.311,268.429 131.978,268.762 130.5,268.5C 130.5,267.5 130.5,266.5 130.5,265.5C 131.404,264.791 131.737,263.791 131.5,262.5 Z"/></g>
    <g><path style="opacity:1" fill="#ebf0f6" d="M 323.5,282.5 C 327.262,284.413 330.929,286.579 334.5,289C 338.689,289.336 342.856,289.836 347,290.5C 348.895,290.385 350.562,289.718 352,288.5C 351.507,291.137 350.173,293.47 348,295.5C 344,294.833 340,294.167 336,293.5C 336.869,297.936 338.369,302.269 340.5,306.5C 340.192,307.308 339.692,307.975 339,308.5C 336.667,303.5 334.333,298.5 332,293.5C 328.41,290.955 324.91,288.288 321.5,285.5C 322.193,284.482 322.859,283.482 323.5,282.5 Z"/></g>
    <g><path style="opacity:1" fill="#eef2f7" d="M 44.5,277.5 C 48.5443,276.958 52.211,277.791 55.5,280C 58.0796,283.158 60.4129,286.492 62.5,290C 55.8333,294.667 49.1667,299.333 42.5,304C 42.0385,305.722 41.8718,307.555 42,309.5C 37.5816,303.827 34.0816,297.66 31.5,291C 34.0203,284.648 38.3536,280.148 44.5,277.5 Z M 48.5,280.5 C 53.8882,280.726 56.7215,283.392 57,288.5C 51.2535,292.624 45.4202,296.624 39.5,300.5C 35.3851,297.638 34.2185,293.971 36,289.5C 39.8113,285.832 43.978,282.832 48.5,280.5 Z"/></g>
    <g><path style="opacity:1" fill="#f6f8fb" d="M 64.5,313.5 C 77.9931,314.998 85.9931,322.331 88.5,335.5C 76.0271,334.029 67.6938,327.362 63.5,315.5C 63.8627,314.817 64.1961,314.15 64.5,313.5 Z"/></g>
    <g><path style="opacity:1" fill="#f6f8fb" d="M 314.5,313.5 C 313.968,323.598 308.634,330.431 298.5,334C 295.883,334.822 293.216,335.322 290.5,335.5C 293.77,322.892 301.77,315.559 314.5,313.5 Z"/></g>
    <g><path style="opacity:1" fill="#f8f9fc" d="M 284.5,315.5 C 285.748,316.334 286.415,317.667 286.5,319.5C 285.867,328.097 282.534,335.43 276.5,341.5C 283.072,341.515 289.739,341.681 296.5,342C 299.721,342.611 302.721,343.778 305.5,345.5C 293.149,355.003 279.816,356.67 265.5,350.5C 264.324,342.201 266.157,334.534 271,327.5C 275.099,322.892 279.599,318.892 284.5,315.5 Z"/></g>
    <g><path style="opacity:1" fill="#f7f9fb" d="M 92.5,315.5 C 107.563,322.137 114.897,333.637 114.5,350C 100.649,356.623 87.4821,355.456 75,346.5C 74.3123,345.668 74.479,345.002 75.5,344.5C 77.7954,343.568 80.1287,342.735 82.5,342C 89.9739,341.26 97.3072,341.594 104.5,343C 96.5452,335.588 92.5452,326.421 92.5,315.5 Z"/></g>
    <g><path style="opacity:1" fill="#f7f8fb" d="M 117.5,330.5 C 132.459,334.96 141.793,344.794 145.5,360C 135.483,368.335 124.149,370.668 111.5,367C 108.888,366.361 106.554,365.194 104.5,363.5C 113.096,356.881 122.762,354.381 133.5,356C 124.253,349.927 118.92,341.427 117.5,330.5 Z"/></g>
    <g><path style="opacity:1" fill="#f7f9fb" d="M 259.5,330.5 C 260.675,330.281 261.675,330.614 262.5,331.5C 260.175,341.982 254.508,350.149 245.5,356C 256.325,354.633 266.325,356.966 275.5,363C 262.096,370.513 248.763,370.18 235.5,362C 234.325,359.162 234.491,356.329 236,353.5C 240.441,342.224 248.274,334.558 259.5,330.5 Z"/></g>
    <g><path style="opacity:1" fill="#f7f9fb" d="M 154.5,378.5 C 151.167,378.5 147.833,378.5 144.5,378.5C 141.977,377.616 139.31,376.782 136.5,376C 144.066,368.026 153.399,363.692 164.5,363C 153.904,358.757 147.404,351.257 145,340.5C 159.92,343.097 170.42,351.264 176.5,365C 174.512,368.321 171.846,370.988 168.5,373C 163.954,375.455 159.288,377.288 154.5,378.5 Z"/></g>
    <g><path style="opacity:1" fill="#f7f9fb" d="M 235.5,378.5 C 232.167,378.5 228.833,378.5 225.5,378.5C 216.264,377.046 208.597,372.713 202.5,365.5C 208.575,350.919 219.409,342.585 235,340.5C 232.384,351.154 225.884,358.654 215.5,363C 226.223,363.9 235.223,368.233 242.5,376C 240.073,376.902 237.74,377.736 235.5,378.5 Z"/></g>
    <g><path style="opacity:1" fill="#f4f6fa" d="M 186.5,361.5 C 194.486,360.998 196.486,364.165 192.5,371C 184.835,371.511 182.835,368.345 186.5,361.5 Z"/></g>
</svg>
