<svg width="65" height="65" viewBox="0 0 67 67" fill="none" xmlns="http://www.w3.org/2000/svg">
    <g clip-path="url(#clip0_58_28)">
        <path fill-rule="evenodd" clip-rule="evenodd" d="M30.7671 -0.0883942C30.8847 -0.0883942 31.0021 -0.0883942 31.1197 -0.0883942C31.1883 1.38521 31.2765 2.85839 31.3842 4.33113C31.926 4.52856 32.4844 4.55803 33.0592 4.41952C33.1599 4.20648 33.2775 4.00025 33.4118 3.80079C33.5822 4.13596 33.6409 4.48953 33.5882 4.86147C32.5851 4.8672 31.5861 4.92614 30.5908 5.03826C30.4924 3.6257 30.4042 2.21146 30.3263 0.795511C30.1676 0.57096 29.962 0.394179 29.7092 0.265168C30.0849 0.146952 30.4376 0.0290979 30.7671 -0.0883942Z" fill="#EAEFF6"/>
        <path fill-rule="evenodd" clip-rule="evenodd" d="M35.5276 0.265178C36.031 0.0347968 36.56 0.0347968 37.1145 0.265178C36.9193 1.72918 36.7722 3.20236 36.6737 4.6847C36.4887 4.96872 36.2243 5.08658 35.8803 5.03826C35.9152 3.64491 36.0328 2.26013 36.2329 0.883911C36.1091 0.555747 35.8739 0.349502 35.5276 0.265178Z" fill="#EEF1F7"/>
        <path opacity="0.915" fill-rule="evenodd" clip-rule="evenodd" d="M41.5224 5.39181C41.8849 5.51841 42.2669 5.63627 42.6684 5.74538C42.7388 5.705 42.768 5.64606 42.7566 5.5686C43.103 5.64785 43.1618 5.82463 42.9329 6.09894C42.469 6.24814 42.0282 6.30706 41.6105 6.27572C41.2699 6.00378 40.8878 5.79753 40.4645 5.65699C40.1378 5.29639 39.9027 4.8839 39.7592 4.41952C39.878 3.72707 40.0249 2.99047 40.2 2.20976C41.0639 0.859482 42.1806 0.564846 43.55 1.32585C43.8769 1.59506 44.1414 1.91916 44.3434 2.29815C44.1532 2.46715 43.9476 2.61448 43.7263 2.7401C43.3148 2.4304 42.9916 2.04737 42.7566 1.59102C42.3299 1.46959 41.9478 1.55798 41.6105 1.85619C41.0639 2.83678 40.7995 3.80908 40.8171 4.77308C40.9991 5.06067 41.2343 5.2669 41.5224 5.39181Z" fill="#E9EEF5"/>
        <path fill-rule="evenodd" clip-rule="evenodd" d="M24.5961 0.972297C26.2742 0.678876 27.244 1.386 27.5053 3.09367C27.8373 5.41284 26.8675 6.32622 24.5961 5.83377C23.565 4.67464 23.2418 3.34878 23.6263 1.8562C23.9313 1.51998 24.2545 1.22535 24.5961 0.972297ZM24.7724 1.32586C25.6712 1.13661 26.2294 1.49017 26.4474 2.38655C26.6221 3.02867 26.7691 3.67685 26.8882 4.33114C26.8238 5.36868 26.2949 5.75171 25.3013 5.48021C24.165 4.18628 23.9886 2.8015 24.7724 1.32586Z" fill="#EAEFF6"/>
        <path fill-rule="evenodd" clip-rule="evenodd" d="M16.3092 4.86148C16.5767 4.56374 16.8999 4.32804 17.2789 4.15435C17.7596 4.70213 18.2004 5.29141 18.6013 5.92216C19.1597 5.7067 19.6887 5.44153 20.1882 5.12665C19.8479 4.56203 19.554 3.97276 19.3066 3.35884C19.412 3.12881 19.5883 2.9815 19.8355 2.91689C20.6864 4.26852 21.4504 5.68277 22.1276 7.15963C21.8688 7.48365 21.5749 7.54257 21.2461 7.33641C21.0574 6.66252 20.734 6.07326 20.2763 5.5686C19.7073 5.80964 19.149 6.07481 18.6013 6.36411C18.9765 7.02786 19.3291 7.70551 19.6592 8.3971C19.4938 8.58323 19.2881 8.70109 19.0421 8.75066C18.3083 7.63386 17.6619 6.45533 17.1026 5.21504C16.907 4.94336 16.6425 4.8255 16.3092 4.86148Z" fill="#EEF1F7"/>
        <path fill-rule="evenodd" clip-rule="evenodd" d="M49.2803 4.15435C49.2908 4.05834 49.3496 3.99942 49.4566 3.97757C49.9332 4.15656 50.3445 4.42173 50.6908 4.77308C50.0525 5.84606 49.4354 6.93619 48.8395 8.04353C48.685 8.64759 48.8908 9.08955 49.4566 9.36939C49.833 9.48159 50.1856 9.42267 50.5145 9.19261C51.1831 8.17628 51.8294 7.14506 52.4539 6.09894C52.5994 5.94237 52.7757 5.88345 52.9829 5.92216C52.4783 6.99423 51.9199 8.05492 51.3079 9.10422C50.2705 10.0619 49.2714 10.0029 48.3105 8.92744C47.9579 8.33817 47.9579 7.74889 48.3105 7.15963C48.8545 6.36408 49.354 5.53909 49.8092 4.68469C49.6879 4.44517 49.5116 4.26839 49.2803 4.15435Z" fill="#ECF0F7"/>
        <path opacity="0.561" fill-rule="evenodd" clip-rule="evenodd" d="M16.3092 4.86148C16.1917 4.97934 16.1917 4.97934 16.3092 4.86148Z" fill="#95B1D3"/>
        <path opacity="0.094" fill-rule="evenodd" clip-rule="evenodd" d="M41.5224 5.39183C41.9736 5.33851 42.3851 5.39745 42.7566 5.56861C42.768 5.64607 42.7388 5.70501 42.6684 5.74539C42.2669 5.63628 41.8849 5.51842 41.5224 5.39183Z" fill="#151F8A"/>
        <path fill-rule="evenodd" clip-rule="evenodd" d="M33.4118 6.80606C36.278 8.94299 38.8346 11.4179 41.0816 14.2309C47.1615 21.7053 51.6868 30.0731 54.6579 39.3338C55.3949 41.8202 55.8944 44.3542 56.1566 46.9353C56.1495 47.2764 56.0908 47.6004 55.9803 47.9076C53.0767 49.3691 50.0206 50.3709 46.8118 50.9129C36.1347 52.9982 25.5557 52.5858 15.075 49.6755C13.5813 49.1769 12.1414 48.5582 10.7553 47.8193C11.1858 42.7338 12.42 37.8428 14.4579 33.1464C18.4068 23.7689 24.0197 15.5486 31.2961 8.48548C31.9835 7.88243 32.6888 7.32263 33.4118 6.80606ZM33.5882 9.10421C33.7331 16.1211 33.9976 23.1334 34.3816 30.1412C35.0287 28.6079 35.7632 27.1348 36.5855 25.7216C36.0566 27.3715 35.5276 29.0216 34.9987 30.6715C37.4412 28.6509 39.8507 26.5886 42.2276 24.4842C40.1561 26.9221 38.0403 29.3382 35.8803 31.7322C35.9097 31.791 35.939 31.8501 35.9684 31.909C37.6134 31.2315 39.2885 30.6421 40.9934 30.1412C39.584 30.9657 38.1147 31.7021 36.5855 32.3509C41.4536 32.7443 46.3316 33.0389 51.2197 33.2348C46.3441 33.5589 41.4661 33.8534 36.5855 34.1187C38.0005 34.8743 39.411 35.6109 40.8171 36.3285C39.1502 35.8397 37.5045 35.3387 35.8803 34.8258C38.2789 37.3764 40.571 39.9988 42.7566 42.6926C40.1706 40.3945 37.5847 38.0963 34.9987 35.7981C35.4927 37.5196 36.0217 39.2286 36.5855 40.9248C35.8589 39.4679 35.1244 37.9946 34.3816 36.5053C33.9831 41.3247 33.6894 46.1566 33.5 51.0013C33.1652 46.1138 32.8713 41.2228 32.6184 36.3285C31.8169 37.9358 31.0235 39.5268 30.2382 41.1016C30.7542 39.3725 31.3421 37.6635 32.0013 35.9749C31.9426 35.9161 31.8837 35.857 31.825 35.7981C29.4373 37.9639 27.0276 40.0853 24.5961 42.1623C26.73 39.6976 28.9047 37.252 31.1197 34.8258C29.294 35.3276 27.4721 35.8874 25.6539 36.5053C27.2246 35.7179 28.8114 34.9224 30.4145 34.1187C25.533 33.8652 20.6549 33.5705 15.7803 33.2348C20.6115 33.0326 25.4307 32.7381 30.2382 32.3509C28.7527 31.6061 27.2833 30.8697 25.8303 30.1412C27.522 30.7065 29.2265 31.2368 30.9434 31.7322C28.6291 29.087 26.2783 26.4648 23.8908 23.8654C24.0084 23.7475 24.1258 23.7475 24.2434 23.8654C26.8 26.1931 29.3566 28.5206 31.9132 30.8483C31.4017 29.2198 30.902 27.5697 30.4145 25.8984C31.0822 27.2375 31.7582 28.5927 32.4421 29.9644C32.8778 23.6773 33.1423 17.3721 33.2355 11.0488C33.3531 10.4006 33.4706 9.75242 33.5882 9.10421ZM16.8382 47.6425C16.7963 47.4142 16.8551 47.2375 17.0145 47.1121C17.135 47.4084 17.3701 47.5263 17.7197 47.4657C17.7423 47.0847 17.6541 46.7312 17.4553 46.405C17.3878 46.5033 17.2996 46.5622 17.1908 46.5818C17.1908 46.3461 17.1908 46.1103 17.1908 45.8747C17.398 45.8359 17.5743 45.8948 17.7197 46.0514C17.9627 46.8121 18.2564 47.5488 18.6013 48.2612C18.2328 48.3086 17.9976 48.1318 17.8961 47.7309C17.5482 47.6434 17.1956 47.6138 16.8382 47.6425ZM20.7171 47.4657C20.7377 47.8164 20.6201 48.1109 20.3645 48.3496C20.0485 47.6647 19.784 46.9576 19.5711 46.2282C19.5123 46.9353 19.4535 47.6425 19.3947 48.3496C19.36 47.5389 19.2718 46.7434 19.1303 45.9631C19.3582 45.8764 19.5934 45.8469 19.8355 45.8747C19.9519 46.5487 20.1575 47.1968 20.4526 47.8193C20.5016 47.6573 20.5898 47.5396 20.7171 47.4657ZM20.7171 47.4657C20.8347 46.9353 20.9521 46.405 21.0697 45.8747C21.2461 45.8747 21.4224 45.8747 21.5987 45.8747C21.6563 46.708 21.5975 47.5329 21.4224 48.3496C21.2771 47.7689 21.1889 47.1797 21.1579 46.5818C21.092 46.9338 20.9451 47.2285 20.7171 47.4657ZM22.6566 47.8193C22.6393 47.4563 22.7569 47.1616 23.0092 46.9353C23.0092 47.1121 23.0092 47.2889 23.0092 47.4657C23.2698 47.512 23.5048 47.4531 23.7145 47.2889C23.6339 46.918 23.4576 46.6235 23.1855 46.405C22.9288 45.8869 23.0757 45.7689 23.6263 46.0514C24.0091 46.812 24.2149 47.5781 24.2434 48.3496C23.8813 47.6785 23.3523 47.5018 22.6566 47.8193ZM24.9487 46.0514C25.4538 45.8246 25.9828 45.8246 26.5355 46.0514C26.8259 46.5737 26.7085 46.9566 26.1829 47.2005C26.3742 47.5845 26.6094 47.938 26.8882 48.2612C26.688 48.3936 26.5117 48.3643 26.3592 48.1728C26.1887 47.7963 25.983 47.4427 25.7421 47.1121C25.5582 47.5012 25.4112 47.9137 25.3013 48.3496C25.1837 47.5573 25.0661 46.7911 24.9487 46.0514ZM27.4171 46.0514C29.0177 45.9797 29.194 45.9797 27.9461 46.0514C27.9461 46.3461 27.9461 46.6407 27.9461 46.9353C28.2359 46.9732 28.5004 46.9141 28.7395 46.7586C28.8571 46.9353 28.8571 47.1121 28.7395 47.2889C28.5004 47.1333 28.2359 47.0743 27.9461 47.1121C27.9461 47.4657 27.9461 47.8193 27.9461 48.1728C28.3481 48.1293 28.7007 48.1293 29.0039 48.1728C28.548 48.3461 28.0778 48.4049 27.5934 48.3496C27.6495 47.5484 27.5908 46.7823 27.4171 46.0514ZM37.6434 45.8747C38.059 45.8458 38.4703 45.8752 38.8776 45.9631C38.5298 46.0506 38.1771 46.0801 37.8197 46.0514C37.842 46.5986 38.1359 46.9226 38.7013 47.0237C39.1716 47.4362 39.1716 47.8488 38.7013 48.2612C38.2778 48.4051 37.8665 48.3756 37.4671 48.1728C37.7737 48.1562 38.1264 48.1267 38.525 48.0844C38.6056 48.0112 38.6645 47.9228 38.7013 47.8193C38.4033 47.3731 38.0213 47.0195 37.5553 46.7586C37.4424 46.4465 37.4719 46.1519 37.6434 45.8747ZM39.4066 45.8747C39.9482 45.8186 40.4772 45.8775 40.9934 46.0514C40.6902 46.0949 40.3375 46.0949 39.9355 46.0514C39.9355 46.3461 39.9355 46.6407 39.9355 46.9353C40.2254 46.9732 40.4899 46.9141 40.729 46.7586C40.8466 46.9942 40.8466 47.23 40.729 47.4657C40.544 47.1816 40.2795 47.0639 39.9355 47.1121C39.9355 47.4657 39.9355 47.8193 39.9355 48.1728C40.3375 48.1293 40.6902 48.1293 40.9934 48.1728C40.5375 48.3461 40.0672 48.4049 39.5829 48.3496C39.6212 47.5134 39.5623 46.6884 39.4066 45.8747ZM41.3461 46.0514C41.9272 45.7815 42.4854 45.8405 43.0211 46.2282C43.1387 46.405 43.1387 46.5818 43.0211 46.7586C42.8409 46.9095 42.694 47.0863 42.5803 47.2889C42.9225 47.6099 43.0401 47.9635 42.9329 48.3496C42.6117 47.9441 42.2883 47.5315 41.9632 47.1121C41.9304 47.5364 41.8422 47.949 41.6987 48.3496C41.5811 47.5573 41.4635 46.7911 41.3461 46.0514ZM44.6961 47.8193C44.7218 48.251 44.5749 48.3689 44.2553 48.1728C44.0486 47.3762 43.7254 46.6396 43.2855 45.9631C43.5119 45.8421 43.7177 45.8717 43.9026 46.0514C44.1199 46.681 44.3843 47.2702 44.6961 47.8193ZM45.5776 46.0514C45.7659 45.8863 46.001 45.8273 46.2829 45.8747C46.3406 46.708 46.2817 47.5329 46.1066 48.3496C46.0401 47.5111 45.8638 46.7451 45.5776 46.0514ZM46.8118 46.0514C47.317 45.8246 47.8459 45.8246 48.3987 46.0514C48.6891 46.5737 48.5717 46.9566 48.0461 47.2005C48.2374 47.5845 48.4726 47.938 48.7513 48.2612C48.5512 48.3936 48.3749 48.3643 48.2224 48.1728C48.0519 47.7963 47.8461 47.4427 47.6053 47.1121C47.4214 47.5012 47.2743 47.9137 47.1645 48.3496C47.0469 47.5573 46.9293 46.7911 46.8118 46.0514ZM49.104 45.8747C49.5777 45.8457 50.0479 45.8752 50.5145 45.9631C50.2264 46.0504 49.9325 46.0797 49.6329 46.0514C49.6329 46.3461 49.6329 46.6407 49.6329 46.9353C49.8935 46.889 50.1285 46.9479 50.3382 47.1121C50.1518 47.1839 49.9166 47.1839 49.6329 47.1121C49.6329 47.4657 49.6329 47.8193 49.6329 48.1728C50.0324 48.2363 50.3556 48.1184 50.6026 47.8193C50.6878 47.9868 50.7171 48.1636 50.6908 48.3496C50.1618 48.3496 49.6329 48.3496 49.104 48.3496C49.104 47.5246 49.104 46.6997 49.104 45.8747ZM45.225 46.405C45.1839 46.9428 45.0076 47.4141 44.6961 47.8193C44.7371 47.2815 44.9135 46.8102 45.225 46.405ZM16.8382 47.6425C16.8713 47.9259 16.7832 48.1617 16.5737 48.3496C16.5124 48.0597 16.6005 47.824 16.8382 47.6425Z" fill="#FBFCFD"/>
        <path fill-rule="evenodd" clip-rule="evenodd" d="M13.8408 6.27573C14.432 6.28545 14.6965 6.58009 14.6342 7.15963C14.1429 6.70292 13.7021 6.76186 13.3118 7.33641C14.1302 8.48116 14.9824 9.60078 15.8684 10.6953C15.9228 11.0296 15.7759 11.2653 15.4276 11.4024C14.4299 10.254 13.4601 9.07541 12.5184 7.86676C12.0268 8.20478 11.7918 8.67618 11.8132 9.281C11.6288 8.99983 11.4231 8.73466 11.1961 8.48549C12.1553 7.82986 13.0368 7.09329 13.8408 6.27573Z" fill="#EAEFF6"/>
        <path fill-rule="evenodd" clip-rule="evenodd" d="M55.0987 8.04354C54.9811 7.80783 54.9811 7.80783 55.0987 8.04354Z" fill="#EDF0F2"/>
        <path fill-rule="evenodd" clip-rule="evenodd" d="M55.0987 8.04353C55.5516 8.20186 55.9043 8.4965 56.1566 8.92744C55.7079 10.3244 55.3845 11.7387 55.1868 13.1702C55.9156 12.2625 56.709 11.4081 57.5671 10.6069C57.7831 10.5074 57.9594 10.5663 58.0961 10.7836C56.9384 11.9445 55.7923 13.0935 54.6579 14.2309C54.3255 14.1669 54.1785 13.9606 54.2171 13.6121C54.5865 12.1617 54.9099 10.7179 55.1868 9.281C54.27 10.1411 53.4179 11.0544 52.6303 12.0211C52.4143 12.1206 52.238 12.0617 52.1013 11.8443C53.1322 10.8638 54.102 9.83252 55.0105 8.75066C55.0969 8.52204 55.1264 8.28632 55.0987 8.04353Z" fill="#E6ECF5"/>
        <path fill-rule="evenodd" clip-rule="evenodd" d="M33.5882 9.10422C33.4706 9.75242 33.3531 10.4006 33.2355 11.0488C33.1671 10.1423 33.2553 9.25841 33.5 8.39709C33.5864 8.62571 33.6158 8.86143 33.5882 9.10422Z" fill="#B0C5E1"/>
        <path fill-rule="evenodd" clip-rule="evenodd" d="M8.375 11.4024C10.0485 11.9324 11.6941 12.5512 13.3118 13.2586C13.1428 13.5173 12.9077 13.6647 12.6066 13.7005C12.1608 13.4457 11.6907 13.3573 11.1961 13.4354C10.7774 13.7958 10.4248 14.2083 10.1382 14.6728C10.3957 15.1007 10.6308 15.5427 10.8434 15.9987C10.7892 16.1415 10.701 16.2594 10.5789 16.3522C9.87369 15.0559 9.16842 13.7594 8.46316 12.4631C8.17182 12.3363 7.90734 12.2774 7.66974 12.2863C7.90898 11.9883 8.14406 11.6937 8.375 11.4024ZM9.08027 12.4631C9.70978 12.5949 10.2975 12.8306 10.8434 13.1702C10.545 13.4987 10.2806 13.8523 10.05 14.2309C9.58814 13.7171 9.2649 13.1279 9.08027 12.4631Z" fill="#EBF0F6"/>
        <path fill-rule="evenodd" clip-rule="evenodd" d="M59.5066 12.6398C59.9142 12.9307 60.2669 13.2843 60.5645 13.7005C59.5321 14.5885 58.4743 15.443 57.3908 16.2639C57.1166 16.4918 56.8229 16.6096 56.5092 16.6174C56.3299 16.4319 56.3005 16.2257 56.4211 15.9987C57.5116 15.1569 58.5695 14.273 59.5947 13.347C59.6291 13.1137 59.5997 12.878 59.5066 12.6398Z" fill="#EEF2F7"/>
        <path opacity="0.602" fill-rule="evenodd" clip-rule="evenodd" d="M61.6224 15.6451C62.2061 15.9315 62.4706 16.4029 62.4158 17.0594C61.5637 18.0317 60.7113 19.004 59.8592 19.9763C61.1197 19.8394 62.3832 19.6331 63.65 19.3575C63.8757 19.3775 64.0226 19.4954 64.0908 19.7111C62.5657 20.1281 61.0081 20.4228 59.4184 20.595C58.8768 20.6185 58.6416 20.3827 58.7132 19.8879C59.7123 18.7683 60.7113 17.6486 61.7105 16.529C61.7782 16.2291 61.749 15.9345 61.6224 15.6451Z" fill="#DCE3F0"/>
        <path fill-rule="evenodd" clip-rule="evenodd" d="M5.55395 15.4683C6.49193 15.4821 6.60948 15.7473 5.90658 16.2639C4.85607 16.2561 4.47407 16.757 4.76053 17.7665C5.55012 18.7994 6.57863 19.3593 7.84605 19.4459C8.53508 19.0971 8.94648 18.5373 9.08026 17.7665C9.19413 18.6886 8.8415 19.4252 8.02237 19.9763C7.38127 20.312 6.73479 20.312 6.0829 19.9763C3.72159 18.6866 3.54527 17.184 5.55395 15.4683Z" fill="#EBEFF6"/>
        <path fill-rule="evenodd" clip-rule="evenodd" d="M64.7961 22.3628C64.9375 22.118 65.0551 22.1475 65.1487 22.4512C65.4251 23.4297 65.7189 24.402 66.0303 25.3681C65.7342 25.5947 65.4109 25.7715 65.0605 25.8984C65.1862 25.6249 65.3331 25.3302 65.5013 25.0145C65.4445 24.5151 65.239 24.1027 64.8842 23.777C64.3501 23.9158 63.8506 24.1219 63.3855 24.3958C63.4913 25.0207 63.8439 25.4331 64.4434 25.6333C63.9268 25.8662 63.3979 25.9842 62.8566 25.9868C63.4285 25.4885 63.458 24.9286 62.9447 24.3074C62.5302 24.522 62.0894 24.6694 61.6224 24.7493C61.4323 24.8685 61.3147 25.0453 61.2697 25.2797C61.2479 26.049 61.6005 26.5203 62.3276 26.6939C62.0023 26.8933 61.6497 26.9817 61.2697 26.9591C61.0705 26.0066 60.8355 25.0637 60.5645 24.1306C61.9272 23.803 63.279 23.42 64.6197 22.9815C64.939 22.7975 64.9979 22.5914 64.7961 22.3628Z" fill="#E9EEF5"/>
        <path fill-rule="evenodd" clip-rule="evenodd" d="M0.969736 24.8377C2.34202 25.0785 3.69378 25.4027 5.025 25.81C5.6396 26.5836 5.72776 27.438 5.28947 28.3734C4.98212 28.7925 4.5707 29.0283 4.05526 29.0805C2.99693 28.8447 1.93903 28.609 0.881578 28.3734C0.621195 28.5402 0.444879 28.7759 0.352631 29.0805C0.215605 28.5627 0.244992 28.0617 0.440788 27.5778C1.64613 27.7131 2.85095 27.9194 4.05526 28.1966C4.80614 28.2392 5.18816 27.8856 5.20132 27.1359C5.22075 26.8046 5.10321 26.5394 4.84868 26.3404C3.693 25.9789 2.51756 25.6842 1.32237 25.4565C1.06261 25.331 0.945064 25.1248 0.969736 24.8377Z" fill="#EBF0F6"/>
        <path fill-rule="evenodd" clip-rule="evenodd" d="M66.9118 30.4947C66.9118 30.7304 66.9118 30.9662 66.9118 31.2019C66.6955 32.268 66.049 32.6511 64.9724 32.3509C64.6622 32.1727 64.4565 31.9076 64.3553 31.5554C63.65 32.0269 62.9447 32.4982 62.2395 32.9697C62.0663 32.7471 62.0076 32.5114 62.0632 32.2625C62.6313 31.752 63.2484 31.31 63.9145 30.9367C64.0621 30.758 64.1208 30.5517 64.0908 30.318C63.3783 30.3489 62.673 30.3784 61.975 30.4063C61.8198 30.1666 61.761 29.9015 61.7987 29.6108C63.3295 29.5249 64.8576 29.407 66.3829 29.2573C66.3498 28.9739 66.4379 28.7381 66.6474 28.5501C66.6786 29.2318 66.7667 29.8801 66.9118 30.4947ZM64.7961 30.1412C65.325 30.1412 65.854 30.1412 66.3829 30.1412C66.6539 30.9713 66.36 31.5017 65.5013 31.7322C64.8646 31.5807 64.512 31.1683 64.4434 30.4947C64.5744 30.3742 64.6919 30.2563 64.7961 30.1412Z" fill="#EBF0F6"/>
        <path fill-rule="evenodd" clip-rule="evenodd" d="M-0.0881577 34.2071C-0.0881577 33.6179 -0.0881577 33.0285 -0.0881577 32.4393C0.148988 32.0263 0.50162 31.7317 0.969737 31.5554C1.22924 32.1847 1.02354 32.5972 0.352632 32.7929C0.119273 33.8576 0.560062 34.4173 1.675 34.4723C2.65398 34.6837 3.56495 34.5365 4.40789 34.0303C4.61075 33.6319 4.66951 33.2194 4.58421 32.7929C3.92281 32.5887 3.24693 32.5003 2.55658 32.5277C2.45587 32.7407 2.33832 32.947 2.20395 33.1464C2.16123 32.6481 2.16123 32.1177 2.20395 31.5554C3.06597 31.6472 3.91818 31.7649 4.76053 31.909C5.41471 34.4622 4.44497 35.6113 1.85132 35.3562C1.02563 35.2383 0.379137 34.8554 -0.0881577 34.2071Z" fill="#E9EEF6"/>
        <path fill-rule="evenodd" clip-rule="evenodd" d="M66.9118 36.6821C66.9118 37.0945 66.9118 37.5071 66.9118 37.9195C66.7472 38.1083 66.6883 38.344 66.7355 38.6267C66.5283 38.6654 66.352 38.6065 66.2066 38.4499C66.6153 37.8633 66.6153 37.3036 66.2066 36.7704C65.9127 36.6525 65.6189 36.6525 65.325 36.7704C64.8747 37.7231 64.1694 38.4007 63.2092 38.8034C61.8003 38.2353 61.4184 37.2334 62.0631 35.7982C62.2088 35.4614 62.4145 35.4023 62.6803 35.6214C62.3306 36.1699 62.1837 36.7591 62.2395 37.3892C62.4584 37.6317 62.7229 37.8085 63.0329 37.9195C63.7649 37.2741 64.4702 36.5965 65.1487 35.8865C65.9804 35.6339 66.568 35.8991 66.9118 36.6821Z" fill="#EAEFF6"/>
        <path fill-rule="evenodd" clip-rule="evenodd" d="M4.49605 37.9195C4.84004 37.8713 5.10452 37.989 5.28947 38.2731C5.57803 39.0933 5.66619 39.9184 5.55395 40.748C4.2058 41.0832 2.85406 41.4072 1.49868 41.7203C1.37693 41.9089 1.28877 42.1152 1.23421 42.339C0.886698 41.24 0.622224 40.1203 0.440788 38.9802C0.795469 38.8893 1.1481 38.86 1.49868 38.8918C0.916044 39.3999 0.798499 40.0186 1.14605 40.748C1.73846 40.7275 2.32619 40.6686 2.90921 40.5712C2.98682 39.8167 2.69298 39.3159 2.02763 39.0686C2.56005 38.8015 3.089 38.7131 3.61447 38.8034C3.34795 38.9358 3.17164 39.1421 3.08553 39.4222C3.21485 39.7344 3.27362 40.0584 3.26184 40.3945C3.86302 40.3446 4.45074 40.2267 5.025 40.0409C5.19714 39.5111 5.16776 38.9807 4.93684 38.4499C4.69021 38.3213 4.42574 38.233 4.14342 38.1847C4.30489 38.1355 4.42244 38.0472 4.49605 37.9195Z" fill="#E9EEF5"/>
        <path fill-rule="evenodd" clip-rule="evenodd" d="M61.2697 40.5712C62.7018 41.0924 64.171 41.4164 65.6776 41.5435C65.788 41.411 65.8762 41.2635 65.9421 41.1016C66.0482 41.6606 65.9601 42.1909 65.6776 42.6926C64.2682 42.3099 62.8576 41.9268 61.4461 41.5435C61.0388 41.2856 60.9801 40.9616 61.2697 40.5712Z" fill="#EDF1F7"/>
        <path fill-rule="evenodd" clip-rule="evenodd" d="M6.43553 42.8694C6.5675 43.0516 6.68505 43.2579 6.78816 43.4881C6.32928 43.8583 5.97665 44.3003 5.73026 44.814C5.86215 45.4578 6.156 45.9882 6.61184 46.405C7.07286 46.2691 7.54304 46.21 8.02237 46.2282C8.02237 46.405 8.02237 46.5818 8.02237 46.7586C6.4895 46.757 4.96144 46.8454 3.43816 47.0237C3.31641 47.2124 3.22825 47.4187 3.17368 47.6425C2.90688 47.1963 2.78933 46.7248 2.82105 46.2282C4.06055 45.1322 5.26537 44.0126 6.43553 42.8694ZM5.20132 44.9908C5.49934 45.345 5.73443 45.7575 5.90658 46.2282C5.26796 46.4331 4.62147 46.4625 3.96711 46.3166C4.4147 45.8976 4.8261 45.4557 5.20132 44.9908Z" fill="#E7EDF5"/>
        <path fill-rule="evenodd" clip-rule="evenodd" d="M59.6829 44.814C61.1255 45.3007 62.536 45.89 63.9145 46.5818C64.3752 46.0743 64.3752 45.5733 63.9145 45.0792C64.5229 45.0139 64.7874 45.2791 64.7079 45.8747C64.2858 46.8977 63.8157 47.8995 63.2974 48.8799C63.0177 48.7251 62.7533 48.5483 62.5039 48.3496C63.1235 48.3459 63.4467 47.9923 63.4737 47.2889C62.2234 46.6769 60.9598 46.0877 59.6829 45.5211C59.5433 45.309 59.5433 45.0733 59.6829 44.814Z" fill="#EBEFF6"/>
        <path fill-rule="evenodd" clip-rule="evenodd" d="M17.0145 47.1121C17.1739 46.9868 17.2326 46.81 17.1908 46.5818C17.2996 46.5622 17.3878 46.5033 17.4553 46.405C17.6541 46.7312 17.7423 47.0847 17.7197 47.4657C17.3701 47.5263 17.135 47.4084 17.0145 47.1121Z" fill="#D7E1EF"/>
        <path fill-rule="evenodd" clip-rule="evenodd" d="M23.1855 46.405C23.4576 46.6235 23.6339 46.918 23.7145 47.2889C23.5048 47.4531 23.2698 47.512 23.0092 47.4657C23.0092 47.2889 23.0092 47.1121 23.0092 46.9354C23.1686 46.81 23.2273 46.6332 23.1855 46.405Z" fill="#DDE4F1"/>
        <path fill-rule="evenodd" clip-rule="evenodd" d="M57.0382 49.9406C57.7015 50.2788 58.348 50.6617 58.9776 51.0897C59.7162 51.1491 60.4509 51.2375 61.1816 51.3549C61.5157 51.3345 61.8096 51.2166 62.0632 51.0013C61.9762 51.4675 61.741 51.8799 61.3579 52.2388C60.6526 52.1209 59.9474 52.0031 59.2421 51.8852C59.3953 52.6694 59.6598 53.4354 60.0355 54.1834C59.9812 54.3262 59.8931 54.4441 59.7711 54.5369C59.3597 53.653 58.9482 52.7691 58.5368 51.8852C57.9039 51.4353 57.2868 50.9638 56.6855 50.471C56.8077 50.291 56.9251 50.1142 57.0382 49.9406Z" fill="#EBF0F6"/>
        <path fill-rule="evenodd" clip-rule="evenodd" d="M7.84605 49.0567C8.55913 48.9609 9.20562 49.1082 9.78553 49.4987C10.2404 50.057 10.6517 50.6464 11.0197 51.2665C9.84429 52.0915 8.66887 52.9164 7.49342 53.7414C7.41205 54.0459 7.38266 54.3699 7.40526 54.7137C6.62623 53.7109 6.00912 52.6206 5.55395 51.4433C5.99832 50.3204 6.76235 49.5249 7.84605 49.0567ZM8.55132 49.5871C9.50134 49.627 10.0009 50.0983 10.05 51.0013C9.0368 51.7304 8.0083 52.4375 6.96447 53.1227C6.23895 52.6168 6.03326 51.9685 6.34737 51.1781C7.01936 50.5297 7.75402 49.9993 8.55132 49.5871Z" fill="#EEF2F7"/>
        <path fill-rule="evenodd" clip-rule="evenodd" d="M11.3724 55.4208C13.7514 55.6857 15.1619 56.982 15.6039 59.31C13.4048 59.05 11.9355 57.8714 11.1961 55.7744C11.26 55.6537 11.3188 55.5357 11.3724 55.4208Z" fill="#F6F8FB"/>
        <path fill-rule="evenodd" clip-rule="evenodd" d="M55.4513 55.4208C55.3575 57.206 54.417 58.4139 52.6303 59.0448C52.1688 59.1902 51.6986 59.2786 51.2197 59.31C51.7963 57.0812 53.2068 55.7848 55.4513 55.4208Z" fill="#F6F8FB"/>
        <path fill-rule="evenodd" clip-rule="evenodd" d="M50.1618 55.7744C50.3819 55.9218 50.4995 56.1575 50.5145 56.4815C50.4029 58.0013 49.8152 59.2977 48.7513 60.3707C49.9101 60.3734 51.0856 60.4027 52.2776 60.4591C52.8455 60.5671 53.3745 60.7734 53.8645 61.0778C51.6868 62.7578 49.336 63.0525 46.8118 61.9617C46.6045 60.4946 46.9277 59.1393 47.7816 57.8958C48.5043 57.0812 49.2977 56.3741 50.1618 55.7744Z" fill="#F8F9FC"/>
        <path fill-rule="evenodd" clip-rule="evenodd" d="M16.3092 55.7744C18.9651 56.9477 20.2582 58.9807 20.1882 61.8734C17.746 63.0442 15.4245 62.8379 13.2237 61.2546C13.1024 61.1075 13.1318 60.9898 13.3118 60.9011C13.7166 60.7363 14.128 60.589 14.5461 60.4591C15.8638 60.3283 17.1568 60.3873 18.425 60.6359C17.0224 59.3256 16.3172 57.705 16.3092 55.7744Z" fill="#F7F9FB"/>
        <path fill-rule="evenodd" clip-rule="evenodd" d="M20.7171 58.4261C23.3546 59.2146 25.0003 60.953 25.6539 63.6412C23.8878 65.1146 21.8894 65.5271 19.6592 64.8786C19.1987 64.7657 18.7872 64.5594 18.425 64.2599C19.9406 63.0898 21.6449 62.6478 23.5382 62.934C21.9078 61.8604 20.9675 60.3578 20.7171 58.4261Z" fill="#F7F8FB"/>
        <path fill-rule="evenodd" clip-rule="evenodd" d="M45.754 58.4261C45.9611 58.3874 46.1374 58.4463 46.2829 58.6029C45.873 60.4559 44.8738 61.8997 43.2855 62.934C45.1941 62.6924 46.9573 63.1048 48.575 64.1715C46.2117 65.4997 43.8608 65.4408 41.5224 63.9947C41.3152 63.493 41.3445 62.9922 41.6105 62.4921C42.3935 60.4987 43.7746 59.1435 45.754 58.4261Z" fill="#F7F9FB"/>
        <path fill-rule="evenodd" clip-rule="evenodd" d="M27.2408 66.9116C26.6531 66.9116 26.0653 66.9116 25.4776 66.9116C25.0328 66.7553 24.5626 66.6079 24.0671 66.4696C25.4011 65.06 27.0467 64.2938 29.0039 64.1715C27.1357 63.4214 25.9897 62.0956 25.5658 60.1939C28.1964 60.653 30.0477 62.0968 31.1197 64.5251C30.7692 65.1121 30.2992 65.5836 29.7092 65.9393C28.9077 66.3733 28.085 66.6973 27.2408 66.9116Z" fill="#F7F9FB"/>
        <path fill-rule="evenodd" clip-rule="evenodd" d="M41.5224 66.9116C40.9347 66.9116 40.3469 66.9116 39.7592 66.9116C38.1308 66.6546 36.7789 65.8886 35.7039 64.6134C36.7751 62.0358 38.6853 60.5625 41.4342 60.1939C40.973 62.0773 39.8269 63.4032 37.9961 64.1715C39.8867 64.3306 41.4735 65.0966 42.7566 66.4696C42.3287 66.6291 41.9173 66.7765 41.5224 66.9116Z" fill="#F7F9FB"/>
        <path fill-rule="evenodd" clip-rule="evenodd" d="M32.8829 63.9063C34.291 63.8176 34.6436 64.3775 33.9408 65.5858C32.5893 65.6761 32.2367 65.1164 32.8829 63.9063Z" fill="#F4F6FA"/>
    </g>
    <defs>
        <clipPath id="clip0_58_28">
            <rect width="67" height="67" fill="white"/>
        </clipPath>
    </defs>
</svg>
