<svg width="83" height="86" viewBox="0 0 83 86" fill="none" xmlns="http://www.w3.org/2000/svg">
    <g filter="url(#filter0_d_15_196)">
        <circle cx="37.5" cy="37.5" r="37" fill="#00145C" stroke="black"/>
        <g clip-path="url(#clip0_15_196)">
            <path fill-rule="evenodd" clip-rule="evenodd" d="M33.9377 13.9784C34.1541 13.9784 34.3706 13.9784 34.5871 13.9784C35.0367 14.0885 35.347 14.3626 35.518 14.8006C35.5942 15.4055 35.6664 16.0114 35.7344 16.6183C35.8295 17.1201 36.0171 17.5818 36.2973 18.0032C36.3021 16.7887 36.8 15.8437 37.791 15.1685C38.3673 14.8116 38.9735 14.7394 39.6094 14.9521C40.0246 15.1827 40.2627 15.5362 40.3238 16.0124C40.2633 17.0794 40.4942 18.0748 41.0165 18.9986C41.2701 19.3525 41.5948 19.6194 41.9907 19.7993C48.1259 21.1352 52.9967 24.3449 56.603 29.4286C58.8305 32.7405 60.0792 36.3902 60.3481 40.378C60.3481 41.1714 60.3481 41.9649 60.3481 42.7583C59.8134 49.4698 56.6239 54.4684 50.7797 57.7541C47.6731 59.4 44.3682 60.4097 40.865 60.7836C40.1087 60.8593 39.3582 60.9243 38.6136 60.9784C37.6467 60.9784 36.6797 60.9784 35.7128 60.9784C32.0277 60.8256 28.4919 60.0107 25.1053 58.5331C22.1498 57.209 19.6603 55.2831 17.6368 52.7555C15.338 49.6634 14.1185 46.1867 13.9783 42.3255C13.9783 41.8206 13.9783 41.3157 13.9783 40.8108C14.4042 34.0515 17.2472 28.5624 22.5076 24.3435C25.4474 22.0883 28.7378 20.5663 32.379 19.7776C31.6424 18.6778 31.4187 17.4804 31.7079 16.1855C32.0469 15.0317 32.7901 14.2959 33.9377 13.9784Z" fill="#FBFDFE"/>
            <path fill-rule="evenodd" clip-rule="evenodd" d="M27.1403 38.3872C28.0332 38.3311 28.7764 38.634 29.37 39.296C29.4953 39.7624 29.3149 39.986 28.8288 39.9668C28.6224 39.7605 28.3915 39.5873 28.1361 39.4475C27.7209 39.2722 27.3024 39.2577 26.8805 39.4042C26.5825 39.558 26.3083 39.7455 26.0579 39.9668C25.7063 40.0336 25.5187 39.8894 25.495 39.5341C25.4846 39.4089 25.5207 39.3008 25.6033 39.2095C26.0297 38.7692 26.542 38.4951 27.1403 38.3872Z" fill="#223336"/>
            <path fill-rule="evenodd" clip-rule="evenodd" d="M46.0172 38.3872C46.9101 38.3311 47.6533 38.634 48.247 39.296C48.3723 39.7624 48.1919 39.986 47.7058 39.9668C47.4993 39.7605 47.2684 39.5873 47.013 39.4475C46.5979 39.2722 46.1794 39.2577 45.7574 39.4042C45.4595 39.558 45.1852 39.7455 44.9348 39.9668C44.5832 40.0336 44.3956 39.8894 44.372 39.5341C44.3616 39.4089 44.3977 39.3008 44.4802 39.2095C44.9066 38.7692 45.419 38.4951 46.0172 38.3872Z" fill="#223336"/>
            <path fill-rule="evenodd" clip-rule="evenodd" d="M27.1835 41.2003C28.3852 41.1547 29.1572 41.7029 29.4998 42.8449C29.6169 44.1695 29.0324 44.9846 27.7464 45.2901C26.9212 45.3645 26.2645 45.0687 25.7764 44.4029C25.1658 43.231 25.3895 42.2572 26.4475 41.4816C26.6881 41.3607 26.9335 41.267 27.1835 41.2003Z" fill="#203236"/>
            <path fill-rule="evenodd" clip-rule="evenodd" d="M46.0172 41.2003C47.1756 41.1547 47.9477 41.6741 48.3335 42.7583C48.5174 43.9995 48.0195 44.829 46.8398 45.2468C45.6 45.4314 44.7702 44.9337 44.3503 43.7537C44.1832 42.4281 44.7389 41.577 46.0172 41.2003Z" fill="#203236"/>
            <path fill-rule="evenodd" clip-rule="evenodd" d="M26.7073 41.7196C27.4683 41.7245 27.6487 42.0563 27.2485 42.715C26.9258 43.0757 26.5434 43.1695 26.1012 42.9963C25.8807 42.7223 25.8735 42.441 26.0795 42.1524C26.2537 41.9472 26.463 41.8029 26.7073 41.7196Z" fill="#F9FAFA"/>
            <path fill-rule="evenodd" clip-rule="evenodd" d="M45.5842 41.7196C46.3452 41.7245 46.5257 42.0563 46.1254 42.715C45.8028 43.0757 45.4203 43.1695 44.9781 42.9963C44.7547 42.7237 44.7475 42.4424 44.9564 42.1524C45.1306 41.9472 45.3399 41.8029 45.5842 41.7196Z" fill="#F8FAFA"/>
            <path fill-rule="evenodd" clip-rule="evenodd" d="M36.3189 42.715C37.0669 42.6559 37.7885 42.7641 38.4837 43.0396C39.3865 43.6001 40.3679 43.8598 41.4278 43.8186C41.7248 43.692 42.0279 43.5766 42.337 43.4724C42.8788 43.3751 43.3839 43.4616 43.8524 43.732C44.5105 44.3627 44.5898 45.0624 44.0905 45.831C43.9173 46.033 43.7297 46.2205 43.5277 46.3936C43.4882 47.0194 43.5315 47.6398 43.6576 48.2546C43.8485 48.8561 44.0217 49.462 44.1771 50.0723C44.5827 51.7517 44.4816 53.3963 43.874 55.006C43.2845 56.2589 42.3536 57.1605 41.0815 57.7109C40.0552 58.1255 38.9872 58.3561 37.8776 58.4033C36.1024 58.579 34.385 58.3479 32.7254 57.7109C30.7598 56.806 29.6701 55.2697 29.4566 53.1017C29.3695 51.9767 29.4561 50.8659 29.7163 49.7693C29.8751 49.2354 30.0339 48.7016 30.1926 48.168C30.2894 47.5799 30.3183 46.9884 30.2792 46.3936C29.6534 45.9648 29.3647 45.3734 29.4133 44.6192C29.7543 43.637 30.4398 43.2547 31.4698 43.4724C31.7695 43.5646 32.0582 43.68 32.3357 43.8186C33.0254 43.8913 33.6893 43.7904 34.3273 43.5157C34.7418 43.3518 35.1459 43.1642 35.5396 42.953C35.8002 42.8593 36.06 42.78 36.3189 42.715Z" fill="#F2AC70"/>
            <path fill-rule="evenodd" clip-rule="evenodd" d="M36.8385 45.7012C38.5035 46.2688 40.1993 46.3698 41.9257 46.0041C42.3651 46.0892 42.495 46.3344 42.3154 46.7399C42.2375 46.8185 42.1437 46.869 42.034 46.8913C41.389 46.9992 40.7396 47.0713 40.0857 47.1077C39.7178 47.6815 39.1983 48.0422 38.527 48.1897C37.3335 48.5289 36.1501 48.5 34.9768 48.1031C34.5746 47.9348 34.221 47.6968 33.916 47.389C33.8569 47.3081 33.8064 47.2216 33.7645 47.1294C33.0823 47.0801 32.4041 47.0007 31.7296 46.8913C31.4672 46.7631 31.3734 46.5539 31.4482 46.2638C31.5492 46.1051 31.6935 46.0186 31.8811 46.0041C33.1846 46.2848 34.4907 46.292 35.7994 46.0258C36.1636 45.9568 36.5099 45.8486 36.8385 45.7012Z" fill="#203235"/>
            <path fill-rule="evenodd" clip-rule="evenodd" d="M36.8385 46.6533C37.5147 46.8664 38.2074 47.0034 38.9167 47.0645C38.6315 47.2221 38.3284 47.3375 38.0075 47.4107C37.0999 47.5929 36.2051 47.5496 35.3232 47.2809C35.1775 47.2081 35.0332 47.1359 34.8902 47.0645C35.5615 47.0011 36.2109 46.864 36.8385 46.6533Z" fill="#E55A43"/>
        </g>
    </g>
    <defs>
        <filter id="filter0_d_15_196" x="0" y="0" width="83" height="86" filterUnits="userSpaceOnUse" color-interpolation-filters="sRGB">
            <feFlood flood-opacity="0" result="BackgroundImageFix"/>
            <feColorMatrix in="SourceAlpha" type="matrix" values="0 0 0 0 0 0 0 0 0 0 0 0 0 0 0 0 0 0 127 0" result="hardAlpha"/>
            <feOffset dx="4" dy="7"/>
            <feGaussianBlur stdDeviation="2"/>
            <feComposite in2="hardAlpha" operator="out"/>
            <feColorMatrix type="matrix" values="0 0 0 0 0 0 0 0 0 0 0 0 0 0 0 0 0 0 0.25 0"/>
            <feBlend mode="normal" in2="BackgroundImageFix" result="effect1_dropShadow_15_196"/>
            <feBlend mode="normal" in="SourceGraphic" in2="effect1_dropShadow_15_196" result="shape"/>
        </filter>
        <clipPath id="clip0_15_196">
            <rect width="46.3697" height="47" fill="white" transform="translate(14 14)"/>
        </clipPath>
    </defs>
</svg>
