<svg xmlns="http://www.w3.org/2000/svg" width="30" height="40" viewBox="0 0 30 40" fill="none">
    <path d="M25.9572 36.9971H30V3.34357H25.9572V7.55025H21.9144V13.8603H17.8716V18.067H13.8288V22.2737H17.8716V26.4803H21.9144V32.7904H25.9572V36.9971Z" fill="#00063C"/>
    <path d="M21.9667 0V5.71429H16.475V0H21.9667ZM10.9833 11.4286V5.71429H16.475V11.4286H10.9833ZM5.49166 17.1429V11.4286H10.9833V17.1429H5.49166ZM5.49166 22.8571H-5.72205e-06V17.1429H5.49166V22.8571ZM10.9833 28.5714V22.8571H5.49166V28.5714H10.9833ZM10.9833 28.5714H16.475V34.2857H10.9833V28.5714ZM21.9667 40V34.2857H16.475V40H21.9667Z" fill="#00063C"/>
</svg>