<svg xmlns="http://www.w3.org/2000/svg" width="30" height="40" viewBox="0 0 30 40" fill="none">
    <path d="M4.0428 36.9971H0V3.34357H4.0428V7.55025H8.08561V13.8603H12.1284V18.067H16.1712V22.2737H12.1284V26.4803H8.08561V32.7904H4.0428V36.9971Z" fill="#00063C"/>
    <path d="M8.03333 0V5.71429H13.525V0H8.03333ZM19.0167 11.4286V5.71429H13.525V11.4286H19.0167ZM24.5083 17.1429V11.4286H19.0167V17.1429H24.5083ZM24.5083 22.8571H30V17.1429H24.5083V22.8571ZM19.0167 28.5714V22.8571H24.5083V28.5714H19.0167ZM19.0167 28.5714H13.525V34.2857H19.0167V28.5714ZM8.03333 40V34.2857H13.525V40H8.03333Z" fill="#00063C"/>
</svg>