<svg xmlns="http://www.w3.org/2000/svg" width="20" height="25" viewBox="0 0 20 25" fill="none">
    <path d="M8.57143 1.42857C8.57143 0.639593 9.21102 0 10 0C10.789 0 11.4286 0.639593 11.4286 1.42857V15.8929C11.4286 17.4708 12.7078 18.75 14.2857 18.75V20.4464C14.2857 21.2354 13.6461 21.875 12.8571 21.875C12.0682 21.875 11.4286 22.5146 11.4286 23.3036V23.5714C11.4286 24.3604 10.789 25 10 25C9.21102 25 8.57143 24.3604 8.57143 23.5714V23.3036C8.57143 22.5146 7.93184 21.875 7.14286 21.875C6.35388 21.875 5.71429 21.2354 5.71429 20.4464V18.75C7.29224 18.75 8.57143 17.4708 8.57143 15.8929V1.42857ZM2.85714 15.625V15.8929C2.85714 17.4708 4.13633 18.75 5.71429 18.75V18.4821C5.71429 16.9042 4.4351 15.625 2.85714 15.625ZM2.85714 15.625V13.9286C2.85714 13.1396 2.21755 12.5 1.42857 12.5C0.639594 12.5 0 13.1396 0 13.9286V14.0625C0 14.9254 0.699555 15.625 1.5625 15.625H2.85714ZM17.1429 15.625V15.8929C17.1429 17.4708 15.8637 18.75 14.2857 18.75V18.4821C14.2857 16.9042 15.5649 15.625 17.1429 15.625ZM17.1429 15.625V13.9286C17.1429 13.1396 17.7825 12.5 18.5714 12.5C19.3604 12.5 20 13.1396 20 13.9286V14.0625C20 14.9254 19.3004 15.625 18.4375 15.625H17.1429Z" fill="black"/>
</svg>