<svg xmlns="http://www.w3.org/2000/svg" width="86" height="91" viewBox="0 0 86 91" fill="none">
    <g filter="url(#filter0_d_14_23)">
        <rect width="75" height="75" rx="10" fill="white"/>
    </g>
    <path d="M38.3252 5C19.913 5 5 19.9213 5 38.3252C5 53.0521 14.5477 65.5407 27.7861 69.9424C29.4523 70.2562 30.0633 69.2259 30.0633 68.34C30.0633 67.5486 30.0355 65.4519 30.0216 62.6748C20.7517 64.6854 18.7966 58.2036 18.7966 58.2036C17.2803 54.3573 15.0892 53.3298 15.0892 53.3298C12.0705 51.2637 15.3225 51.3053 15.3225 51.3053C18.6689 51.5386 20.4268 54.7378 20.4268 54.7378C23.3983 59.8338 28.2276 58.3619 30.1327 57.5094C30.4327 55.3543 31.2908 53.8852 32.2433 53.0521C24.8424 52.219 17.0637 49.353 17.0637 36.5839C17.0637 32.9459 18.3551 29.9744 20.4934 27.6417C20.1185 26.8002 18.9938 23.4122 20.785 18.8216C20.785 18.8216 23.576 17.9274 29.9494 22.2374C32.6155 21.496 35.4481 21.1294 38.2807 21.1127C41.1134 21.1294 43.946 21.496 46.612 22.2374C52.9438 17.9274 55.7348 18.8216 55.7348 18.8216C57.526 23.4122 56.4013 26.8002 56.068 27.6417C58.1925 29.9744 59.4839 32.9459 59.4839 36.5839C59.4839 49.3863 51.6941 52.2051 44.2793 53.0243C45.4456 54.0241 46.5287 56.068 46.5287 59.1895C46.5287 63.6495 46.4871 67.232 46.4871 68.315C46.4871 69.1898 47.0702 70.2312 48.7782 69.898C62.111 65.5268 71.6503 53.0299 71.6503 38.3252C71.6503 19.9213 56.729 5 38.3252 5Z" fill="black"/>
    <defs>
        <filter id="filter0_d_14_23" x="0" y="0" width="86" height="91" filterUnits="userSpaceOnUse" color-interpolation-filters="sRGB">
            <feFlood flood-opacity="0" result="BackgroundImageFix"/>
            <feColorMatrix in="SourceAlpha" type="matrix" values="0 0 0 0 0 0 0 0 0 0 0 0 0 0 0 0 0 0 127 0" result="hardAlpha"/>
            <feOffset dx="7" dy="12"/>
            <feGaussianBlur stdDeviation="2"/>
            <feComposite in2="hardAlpha" operator="out"/>
            <feColorMatrix type="matrix" values="0 0 0 0 0 0 0 0 0 0 0 0 0 0 0 0 0 0 0.25 0"/>
            <feBlend mode="normal" in2="BackgroundImageFix" result="effect1_dropShadow_14_23"/>
            <feBlend mode="normal" in="SourceGraphic" in2="effect1_dropShadow_14_23" result="shape"/>
        </filter>
    </defs>
</svg>