<svg xmlns="http://www.w3.org/2000/svg" width="26" height="28" viewBox="0 0 26 28" fill="none">
    <path d="M11.1143 0H13.8928V27.7856H11.1143V25.0071H8.33569V22.2285H11.1143V5.55713H8.33569V2.77856H11.1143V0ZM5.55713 8.33569V5.55713H8.33569V8.33569H5.55713ZM5.55713 19.45H0V8.33569H5.55713V11.1143H2.77856V16.6714H5.55713V19.45ZM5.55713 19.45V22.2285H8.33569V19.45H5.55713ZM19.45 11.1143H16.6714V16.6714H19.45V11.1143ZM22.2285 8.33569H25.0071V19.45H22.2285V8.33569ZM22.2285 19.45V22.2285H16.6714V19.45H22.2285ZM22.2285 5.55713V8.33569H16.6714V5.55713H22.2285Z" fill="#FFE299"/>
</svg>