<svg xmlns="http://www.w3.org/2000/svg" width="31" height="31" viewBox="0 0 31 31" fill="none">
    <path d="M16.8889 0H13.8182V9.21212H16.8889V0ZM16.8889 21.495H13.8182V30.7071H16.8889V21.495ZM30.7071 13.8182V16.8889H21.495V13.8182H30.7071ZM9.21212 16.8889V13.8182H0V16.8889H9.21212ZM19.9596 7.67677H23.0303V10.7475H19.9596V7.67677ZM26.101 4.60606H23.0303V7.67677H26.101V4.60606ZM10.7475 7.67677H7.67677V10.7475H10.7475V7.67677ZM4.60606 4.60606H7.67677V7.67677H4.60606V4.60606ZM19.9596 23.0303H23.0303V26.101H26.101V23.0303H23.0303V19.9596H19.9596V23.0303ZM7.67677 23.0303V19.9596H10.7475V23.0303H7.67677V26.101H4.60606V23.0303H7.67677Z" fill="#FFE299"/>
</svg>