<svg xmlns="http://www.w3.org/2000/svg" width="21" height="26" viewBox="0 0 21 26" fill="none">
    <path d="M8.9813 23.8722C8.9813 24.6989 9.65147 25.369 10.4782 25.369C11.3049 25.369 11.9751 24.6989 11.9751 23.8722V9.33603C11.9751 7.68262 13.3154 6.34226 14.9688 6.34226V4.66802C14.9688 3.84131 14.2987 3.17113 13.4719 3.17113C12.6452 3.17113 11.9751 2.50095 11.9751 1.67425V1.49688C11.9751 0.670179 11.3049 0 10.4782 0C9.65147 0 8.9813 0.670178 8.9813 1.49688V1.67425C8.9813 2.50095 8.31112 3.17113 7.48442 3.17113C6.65771 3.17113 5.98753 3.84131 5.98753 4.66801V6.34226C7.64094 6.34226 8.9813 7.68262 8.9813 9.33603V23.8722ZM2.99377 9.51339V9.33603C2.99377 7.68262 4.33412 6.34226 5.98753 6.34226V6.51963C5.98753 8.17304 4.64718 9.51339 2.99377 9.51339ZM2.99377 9.51339V11.1876C2.99377 12.0143 2.32359 12.6845 1.49688 12.6845C0.670177 12.6845 0 12.0143 0 11.1876V11.099C0 10.2233 0.709881 9.51339 1.58556 9.51339H2.99377ZM17.9626 9.51339V9.33603C17.9626 7.68262 16.6222 6.34226 14.9688 6.34226V6.51963C14.9688 8.17304 16.3092 9.51339 17.9626 9.51339ZM17.9626 9.51339V11.1876C17.9626 12.0143 18.6328 12.6845 19.4595 12.6845C20.2862 12.6845 20.9564 12.0143 20.9564 11.1876V11.099C20.9564 10.2233 20.2465 9.51339 19.3708 9.51339H17.9626Z" fill="black"/>
</svg>